G04 #@! TF.GenerationSoftware,KiCad,Pcbnew,5.1.9*
G04 #@! TF.CreationDate,2021-03-20T02:04:08-07:00*
G04 #@! TF.ProjectId,base,62617365-2e6b-4696-9361-645f70636258,rev?*
G04 #@! TF.SameCoordinates,Original*
G04 #@! TF.FileFunction,Copper,L1,Top*
G04 #@! TF.FilePolarity,Positive*
%FSLAX46Y46*%
G04 Gerber Fmt 4.6, Leading zero omitted, Abs format (unit mm)*
G04 Created by KiCad (PCBNEW 5.1.9) date 2021-03-20 02:04:08*
%MOMM*%
%LPD*%
G01*
G04 APERTURE LIST*
G04 #@! TA.AperFunction,ViaPad*
%ADD10C,0.800000*%
G04 #@! TD*
G04 #@! TA.AperFunction,Conductor*
%ADD11C,0.250000*%
G04 #@! TD*
G04 #@! TA.AperFunction,Conductor*
%ADD12C,0.254000*%
G04 #@! TD*
G04 #@! TA.AperFunction,Conductor*
%ADD13C,0.100000*%
G04 #@! TD*
G04 APERTURE END LIST*
G04 #@! TA.AperFunction,SMDPad,CuDef*
G36*
G01*
X156635000Y-62930000D02*
X156635000Y-62730000D01*
G75*
G02*
X156735000Y-62630000I100000J0D01*
G01*
X156995000Y-62630000D01*
G75*
G02*
X157095000Y-62730000I0J-100000D01*
G01*
X157095000Y-62930000D01*
G75*
G02*
X156995000Y-63030000I-100000J0D01*
G01*
X156735000Y-63030000D01*
G75*
G02*
X156635000Y-62930000I0J100000D01*
G01*
G37*
G04 #@! TD.AperFunction*
G04 #@! TA.AperFunction,SMDPad,CuDef*
G36*
G01*
X155995000Y-62930000D02*
X155995000Y-62730000D01*
G75*
G02*
X156095000Y-62630000I100000J0D01*
G01*
X156355000Y-62630000D01*
G75*
G02*
X156455000Y-62730000I0J-100000D01*
G01*
X156455000Y-62930000D01*
G75*
G02*
X156355000Y-63030000I-100000J0D01*
G01*
X156095000Y-63030000D01*
G75*
G02*
X155995000Y-62930000I0J100000D01*
G01*
G37*
G04 #@! TD.AperFunction*
D10*
X156555000Y-62830000D03*
D11*
X156225000Y-62830000D02*
X156555000Y-62830000D01*
D12*
X269464255Y-25781594D02*
X269886781Y-25909162D01*
X270276482Y-26116369D01*
X270618513Y-26395324D01*
X270899849Y-26735399D01*
X271109771Y-27123644D01*
X271240285Y-27545265D01*
X271290000Y-28018274D01*
X271290001Y-97964043D01*
X271243406Y-98439255D01*
X271115838Y-98861781D01*
X270908631Y-99251482D01*
X270629676Y-99593513D01*
X270289601Y-99874849D01*
X269901356Y-100084771D01*
X269479737Y-100215285D01*
X269006726Y-100265000D01*
X52460947Y-100265000D01*
X51985745Y-100218406D01*
X51563219Y-100090838D01*
X51173518Y-99883631D01*
X50831487Y-99604676D01*
X50550151Y-99264601D01*
X50340229Y-98876356D01*
X50209715Y-98454737D01*
X50160000Y-97981726D01*
X50160000Y-81829117D01*
X66240000Y-81829117D01*
X66240000Y-82170883D01*
X66306675Y-82506081D01*
X66437463Y-82821831D01*
X66627337Y-83105998D01*
X66869002Y-83347663D01*
X67153169Y-83537537D01*
X67468919Y-83668325D01*
X67804117Y-83735000D01*
X68145883Y-83735000D01*
X68481081Y-83668325D01*
X68796831Y-83537537D01*
X69080998Y-83347663D01*
X69322663Y-83105998D01*
X69512537Y-82821831D01*
X69643325Y-82506081D01*
X69710000Y-82170883D01*
X69710000Y-81829117D01*
X251740000Y-81829117D01*
X251740000Y-82170883D01*
X251806675Y-82506081D01*
X251937463Y-82821831D01*
X252127337Y-83105998D01*
X252369002Y-83347663D01*
X252653169Y-83537537D01*
X252968919Y-83668325D01*
X253304117Y-83735000D01*
X253645883Y-83735000D01*
X253981081Y-83668325D01*
X254296831Y-83537537D01*
X254580998Y-83347663D01*
X254822663Y-83105998D01*
X255012537Y-82821831D01*
X255143325Y-82506081D01*
X255210000Y-82170883D01*
X255210000Y-81829117D01*
X255143325Y-81493919D01*
X255012537Y-81178169D01*
X254822663Y-80894002D01*
X254580998Y-80652337D01*
X254296831Y-80462463D01*
X253981081Y-80331675D01*
X253645883Y-80265000D01*
X253304117Y-80265000D01*
X252968919Y-80331675D01*
X252653169Y-80462463D01*
X252369002Y-80652337D01*
X252127337Y-80894002D01*
X251937463Y-81178169D01*
X251806675Y-81493919D01*
X251740000Y-81829117D01*
X69710000Y-81829117D01*
X69643325Y-81493919D01*
X69512537Y-81178169D01*
X69322663Y-80894002D01*
X69080998Y-80652337D01*
X68796831Y-80462463D01*
X68481081Y-80331675D01*
X68145883Y-80265000D01*
X67804117Y-80265000D01*
X67468919Y-80331675D01*
X67153169Y-80462463D01*
X66869002Y-80652337D01*
X66627337Y-80894002D01*
X66437463Y-81178169D01*
X66306675Y-81493919D01*
X66240000Y-81829117D01*
X50160000Y-81829117D01*
X50160000Y-63061750D01*
X155360000Y-63061750D01*
X155373059Y-63172567D01*
X155412823Y-63291163D01*
X155474960Y-63399722D01*
X155557081Y-63494072D01*
X155656032Y-63570589D01*
X155768009Y-63626331D01*
X155888709Y-63659157D01*
X155963250Y-63665000D01*
X156122000Y-63506250D01*
X156122000Y-63407810D01*
X156197081Y-63494072D01*
X156296032Y-63570589D01*
X156408009Y-63626331D01*
X156463050Y-63641300D01*
X156486750Y-63665000D01*
X156545000Y-63660434D01*
X156603250Y-63665000D01*
X156626950Y-63641300D01*
X156681991Y-63626331D01*
X156793968Y-63570589D01*
X156892919Y-63494072D01*
X156968000Y-63407810D01*
X156968000Y-63506250D01*
X157126750Y-63665000D01*
X157201291Y-63659157D01*
X157321991Y-63626331D01*
X157433968Y-63570589D01*
X157532919Y-63494072D01*
X157615040Y-63399722D01*
X157677177Y-63291163D01*
X157716941Y-63172567D01*
X157730000Y-63061750D01*
X157571250Y-62903000D01*
X156968000Y-62903000D01*
X156968000Y-62939750D01*
X156931250Y-62903000D01*
X156158750Y-62903000D01*
X156122000Y-62939750D01*
X156122000Y-62903000D01*
X155518750Y-62903000D01*
X155360000Y-63061750D01*
X50160000Y-63061750D01*
X50160000Y-62829117D01*
X158990000Y-62829117D01*
X158990000Y-63170883D01*
X159056675Y-63506081D01*
X159187463Y-63821831D01*
X159377337Y-64105998D01*
X159619002Y-64347663D01*
X159903169Y-64537537D01*
X160218919Y-64668325D01*
X160554117Y-64735000D01*
X160895883Y-64735000D01*
X161231081Y-64668325D01*
X161546831Y-64537537D01*
X161830998Y-64347663D01*
X162072663Y-64105998D01*
X162262537Y-63821831D01*
X162393325Y-63506081D01*
X162460000Y-63170883D01*
X162460000Y-62829117D01*
X162393325Y-62493919D01*
X162262537Y-62178169D01*
X162072663Y-61894002D01*
X161830998Y-61652337D01*
X161546831Y-61462463D01*
X161231081Y-61331675D01*
X160895883Y-61265000D01*
X160554117Y-61265000D01*
X160218919Y-61331675D01*
X159903169Y-61462463D01*
X159619002Y-61652337D01*
X159377337Y-61894002D01*
X159187463Y-62178169D01*
X159056675Y-62493919D01*
X158990000Y-62829117D01*
X50160000Y-62829117D01*
X50160000Y-62598250D01*
X155360000Y-62598250D01*
X155518750Y-62757000D01*
X156122000Y-62757000D01*
X156122000Y-62720250D01*
X156158750Y-62757000D01*
X156931250Y-62757000D01*
X156968000Y-62720250D01*
X156968000Y-62757000D01*
X157571250Y-62757000D01*
X157730000Y-62598250D01*
X157716941Y-62487433D01*
X157677177Y-62368837D01*
X157615040Y-62260278D01*
X157532919Y-62165928D01*
X157433968Y-62089411D01*
X157321991Y-62033669D01*
X157201291Y-62000843D01*
X157126750Y-61995000D01*
X156968000Y-62153750D01*
X156968000Y-62252190D01*
X156892919Y-62165928D01*
X156793968Y-62089411D01*
X156681991Y-62033669D01*
X156626950Y-62018700D01*
X156603250Y-61995000D01*
X156545000Y-61999566D01*
X156486750Y-61995000D01*
X156463050Y-62018700D01*
X156408009Y-62033669D01*
X156296032Y-62089411D01*
X156197081Y-62165928D01*
X156122000Y-62252190D01*
X156122000Y-62153750D01*
X155963250Y-61995000D01*
X155888709Y-62000843D01*
X155768009Y-62033669D01*
X155656032Y-62089411D01*
X155557081Y-62165928D01*
X155474960Y-62260278D01*
X155412823Y-62368837D01*
X155373059Y-62487433D01*
X155360000Y-62598250D01*
X50160000Y-62598250D01*
X50160000Y-43829117D01*
X66240000Y-43829117D01*
X66240000Y-44170883D01*
X66306675Y-44506081D01*
X66437463Y-44821831D01*
X66627337Y-45105998D01*
X66869002Y-45347663D01*
X67153169Y-45537537D01*
X67468919Y-45668325D01*
X67804117Y-45735000D01*
X68145883Y-45735000D01*
X68481081Y-45668325D01*
X68796831Y-45537537D01*
X69080998Y-45347663D01*
X69322663Y-45105998D01*
X69512537Y-44821831D01*
X69643325Y-44506081D01*
X69710000Y-44170883D01*
X69710000Y-43829117D01*
X251740000Y-43829117D01*
X251740000Y-44170883D01*
X251806675Y-44506081D01*
X251937463Y-44821831D01*
X252127337Y-45105998D01*
X252369002Y-45347663D01*
X252653169Y-45537537D01*
X252968919Y-45668325D01*
X253304117Y-45735000D01*
X253645883Y-45735000D01*
X253981081Y-45668325D01*
X254296831Y-45537537D01*
X254580998Y-45347663D01*
X254822663Y-45105998D01*
X255012537Y-44821831D01*
X255143325Y-44506081D01*
X255210000Y-44170883D01*
X255210000Y-43829117D01*
X255143325Y-43493919D01*
X255012537Y-43178169D01*
X254822663Y-42894002D01*
X254580998Y-42652337D01*
X254296831Y-42462463D01*
X253981081Y-42331675D01*
X253645883Y-42265000D01*
X253304117Y-42265000D01*
X252968919Y-42331675D01*
X252653169Y-42462463D01*
X252369002Y-42652337D01*
X252127337Y-42894002D01*
X251937463Y-43178169D01*
X251806675Y-43493919D01*
X251740000Y-43829117D01*
X69710000Y-43829117D01*
X69643325Y-43493919D01*
X69512537Y-43178169D01*
X69322663Y-42894002D01*
X69080998Y-42652337D01*
X68796831Y-42462463D01*
X68481081Y-42331675D01*
X68145883Y-42265000D01*
X67804117Y-42265000D01*
X67468919Y-42331675D01*
X67153169Y-42462463D01*
X66869002Y-42652337D01*
X66627337Y-42894002D01*
X66437463Y-43178169D01*
X66306675Y-43493919D01*
X66240000Y-43829117D01*
X50160000Y-43829117D01*
X50160000Y-28035947D01*
X50206594Y-27560745D01*
X50334162Y-27138219D01*
X50541369Y-26748518D01*
X50820324Y-26406487D01*
X51160399Y-26125151D01*
X51548644Y-25915229D01*
X51970265Y-25784715D01*
X52443274Y-25735000D01*
X268989053Y-25735000D01*
X269464255Y-25781594D01*
G04 #@! TA.AperFunction,Conductor*
D13*
G36*
X269464255Y-25781594D02*
G01*
X269886781Y-25909162D01*
X270276482Y-26116369D01*
X270618513Y-26395324D01*
X270899849Y-26735399D01*
X271109771Y-27123644D01*
X271240285Y-27545265D01*
X271290000Y-28018274D01*
X271290001Y-97964043D01*
X271243406Y-98439255D01*
X271115838Y-98861781D01*
X270908631Y-99251482D01*
X270629676Y-99593513D01*
X270289601Y-99874849D01*
X269901356Y-100084771D01*
X269479737Y-100215285D01*
X269006726Y-100265000D01*
X52460947Y-100265000D01*
X51985745Y-100218406D01*
X51563219Y-100090838D01*
X51173518Y-99883631D01*
X50831487Y-99604676D01*
X50550151Y-99264601D01*
X50340229Y-98876356D01*
X50209715Y-98454737D01*
X50160000Y-97981726D01*
X50160000Y-81829117D01*
X66240000Y-81829117D01*
X66240000Y-82170883D01*
X66306675Y-82506081D01*
X66437463Y-82821831D01*
X66627337Y-83105998D01*
X66869002Y-83347663D01*
X67153169Y-83537537D01*
X67468919Y-83668325D01*
X67804117Y-83735000D01*
X68145883Y-83735000D01*
X68481081Y-83668325D01*
X68796831Y-83537537D01*
X69080998Y-83347663D01*
X69322663Y-83105998D01*
X69512537Y-82821831D01*
X69643325Y-82506081D01*
X69710000Y-82170883D01*
X69710000Y-81829117D01*
X251740000Y-81829117D01*
X251740000Y-82170883D01*
X251806675Y-82506081D01*
X251937463Y-82821831D01*
X252127337Y-83105998D01*
X252369002Y-83347663D01*
X252653169Y-83537537D01*
X252968919Y-83668325D01*
X253304117Y-83735000D01*
X253645883Y-83735000D01*
X253981081Y-83668325D01*
X254296831Y-83537537D01*
X254580998Y-83347663D01*
X254822663Y-83105998D01*
X255012537Y-82821831D01*
X255143325Y-82506081D01*
X255210000Y-82170883D01*
X255210000Y-81829117D01*
X255143325Y-81493919D01*
X255012537Y-81178169D01*
X254822663Y-80894002D01*
X254580998Y-80652337D01*
X254296831Y-80462463D01*
X253981081Y-80331675D01*
X253645883Y-80265000D01*
X253304117Y-80265000D01*
X252968919Y-80331675D01*
X252653169Y-80462463D01*
X252369002Y-80652337D01*
X252127337Y-80894002D01*
X251937463Y-81178169D01*
X251806675Y-81493919D01*
X251740000Y-81829117D01*
X69710000Y-81829117D01*
X69643325Y-81493919D01*
X69512537Y-81178169D01*
X69322663Y-80894002D01*
X69080998Y-80652337D01*
X68796831Y-80462463D01*
X68481081Y-80331675D01*
X68145883Y-80265000D01*
X67804117Y-80265000D01*
X67468919Y-80331675D01*
X67153169Y-80462463D01*
X66869002Y-80652337D01*
X66627337Y-80894002D01*
X66437463Y-81178169D01*
X66306675Y-81493919D01*
X66240000Y-81829117D01*
X50160000Y-81829117D01*
X50160000Y-63061750D01*
X155360000Y-63061750D01*
X155373059Y-63172567D01*
X155412823Y-63291163D01*
X155474960Y-63399722D01*
X155557081Y-63494072D01*
X155656032Y-63570589D01*
X155768009Y-63626331D01*
X155888709Y-63659157D01*
X155963250Y-63665000D01*
X156122000Y-63506250D01*
X156122000Y-63407810D01*
X156197081Y-63494072D01*
X156296032Y-63570589D01*
X156408009Y-63626331D01*
X156463050Y-63641300D01*
X156486750Y-63665000D01*
X156545000Y-63660434D01*
X156603250Y-63665000D01*
X156626950Y-63641300D01*
X156681991Y-63626331D01*
X156793968Y-63570589D01*
X156892919Y-63494072D01*
X156968000Y-63407810D01*
X156968000Y-63506250D01*
X157126750Y-63665000D01*
X157201291Y-63659157D01*
X157321991Y-63626331D01*
X157433968Y-63570589D01*
X157532919Y-63494072D01*
X157615040Y-63399722D01*
X157677177Y-63291163D01*
X157716941Y-63172567D01*
X157730000Y-63061750D01*
X157571250Y-62903000D01*
X156968000Y-62903000D01*
X156968000Y-62939750D01*
X156931250Y-62903000D01*
X156158750Y-62903000D01*
X156122000Y-62939750D01*
X156122000Y-62903000D01*
X155518750Y-62903000D01*
X155360000Y-63061750D01*
X50160000Y-63061750D01*
X50160000Y-62829117D01*
X158990000Y-62829117D01*
X158990000Y-63170883D01*
X159056675Y-63506081D01*
X159187463Y-63821831D01*
X159377337Y-64105998D01*
X159619002Y-64347663D01*
X159903169Y-64537537D01*
X160218919Y-64668325D01*
X160554117Y-64735000D01*
X160895883Y-64735000D01*
X161231081Y-64668325D01*
X161546831Y-64537537D01*
X161830998Y-64347663D01*
X162072663Y-64105998D01*
X162262537Y-63821831D01*
X162393325Y-63506081D01*
X162460000Y-63170883D01*
X162460000Y-62829117D01*
X162393325Y-62493919D01*
X162262537Y-62178169D01*
X162072663Y-61894002D01*
X161830998Y-61652337D01*
X161546831Y-61462463D01*
X161231081Y-61331675D01*
X160895883Y-61265000D01*
X160554117Y-61265000D01*
X160218919Y-61331675D01*
X159903169Y-61462463D01*
X159619002Y-61652337D01*
X159377337Y-61894002D01*
X159187463Y-62178169D01*
X159056675Y-62493919D01*
X158990000Y-62829117D01*
X50160000Y-62829117D01*
X50160000Y-62598250D01*
X155360000Y-62598250D01*
X155518750Y-62757000D01*
X156122000Y-62757000D01*
X156122000Y-62720250D01*
X156158750Y-62757000D01*
X156931250Y-62757000D01*
X156968000Y-62720250D01*
X156968000Y-62757000D01*
X157571250Y-62757000D01*
X157730000Y-62598250D01*
X157716941Y-62487433D01*
X157677177Y-62368837D01*
X157615040Y-62260278D01*
X157532919Y-62165928D01*
X157433968Y-62089411D01*
X157321991Y-62033669D01*
X157201291Y-62000843D01*
X157126750Y-61995000D01*
X156968000Y-62153750D01*
X156968000Y-62252190D01*
X156892919Y-62165928D01*
X156793968Y-62089411D01*
X156681991Y-62033669D01*
X156626950Y-62018700D01*
X156603250Y-61995000D01*
X156545000Y-61999566D01*
X156486750Y-61995000D01*
X156463050Y-62018700D01*
X156408009Y-62033669D01*
X156296032Y-62089411D01*
X156197081Y-62165928D01*
X156122000Y-62252190D01*
X156122000Y-62153750D01*
X155963250Y-61995000D01*
X155888709Y-62000843D01*
X155768009Y-62033669D01*
X155656032Y-62089411D01*
X155557081Y-62165928D01*
X155474960Y-62260278D01*
X155412823Y-62368837D01*
X155373059Y-62487433D01*
X155360000Y-62598250D01*
X50160000Y-62598250D01*
X50160000Y-43829117D01*
X66240000Y-43829117D01*
X66240000Y-44170883D01*
X66306675Y-44506081D01*
X66437463Y-44821831D01*
X66627337Y-45105998D01*
X66869002Y-45347663D01*
X67153169Y-45537537D01*
X67468919Y-45668325D01*
X67804117Y-45735000D01*
X68145883Y-45735000D01*
X68481081Y-45668325D01*
X68796831Y-45537537D01*
X69080998Y-45347663D01*
X69322663Y-45105998D01*
X69512537Y-44821831D01*
X69643325Y-44506081D01*
X69710000Y-44170883D01*
X69710000Y-43829117D01*
X251740000Y-43829117D01*
X251740000Y-44170883D01*
X251806675Y-44506081D01*
X251937463Y-44821831D01*
X252127337Y-45105998D01*
X252369002Y-45347663D01*
X252653169Y-45537537D01*
X252968919Y-45668325D01*
X253304117Y-45735000D01*
X253645883Y-45735000D01*
X253981081Y-45668325D01*
X254296831Y-45537537D01*
X254580998Y-45347663D01*
X254822663Y-45105998D01*
X255012537Y-44821831D01*
X255143325Y-44506081D01*
X255210000Y-44170883D01*
X255210000Y-43829117D01*
X255143325Y-43493919D01*
X255012537Y-43178169D01*
X254822663Y-42894002D01*
X254580998Y-42652337D01*
X254296831Y-42462463D01*
X253981081Y-42331675D01*
X253645883Y-42265000D01*
X253304117Y-42265000D01*
X252968919Y-42331675D01*
X252653169Y-42462463D01*
X252369002Y-42652337D01*
X252127337Y-42894002D01*
X251937463Y-43178169D01*
X251806675Y-43493919D01*
X251740000Y-43829117D01*
X69710000Y-43829117D01*
X69643325Y-43493919D01*
X69512537Y-43178169D01*
X69322663Y-42894002D01*
X69080998Y-42652337D01*
X68796831Y-42462463D01*
X68481081Y-42331675D01*
X68145883Y-42265000D01*
X67804117Y-42265000D01*
X67468919Y-42331675D01*
X67153169Y-42462463D01*
X66869002Y-42652337D01*
X66627337Y-42894002D01*
X66437463Y-43178169D01*
X66306675Y-43493919D01*
X66240000Y-43829117D01*
X50160000Y-43829117D01*
X50160000Y-28035947D01*
X50206594Y-27560745D01*
X50334162Y-27138219D01*
X50541369Y-26748518D01*
X50820324Y-26406487D01*
X51160399Y-26125151D01*
X51548644Y-25915229D01*
X51970265Y-25784715D01*
X52443274Y-25735000D01*
X268989053Y-25735000D01*
X269464255Y-25781594D01*
G37*
G04 #@! TD.AperFunction*
M02*
