G04 #@! TF.GenerationSoftware,KiCad,Pcbnew,5.1.9*
G04 #@! TF.CreationDate,2021-03-19T21:55:44-07:00*
G04 #@! TF.ProjectId,choc-40,63686f63-2d34-4302-9e6b-696361645f70,rev?*
G04 #@! TF.SameCoordinates,Original*
G04 #@! TF.FileFunction,Soldermask,Top*
G04 #@! TF.FilePolarity,Negative*
%FSLAX46Y46*%
G04 Gerber Fmt 4.6, Leading zero omitted, Abs format (unit mm)*
G04 Created by KiCad (PCBNEW 5.1.9) date 2021-03-19 21:55:44*
%MOMM*%
%LPD*%
G01*
G04 APERTURE LIST*
%ADD10C,1.700000*%
%ADD11C,2.000000*%
%ADD12C,3.400000*%
%ADD13C,0.700000*%
%ADD14C,4.400000*%
%ADD15O,1.600000X1.600000*%
%ADD16R,1.600000X1.600000*%
%ADD17C,1.752600*%
%ADD18R,1.752600X1.752600*%
G04 APERTURE END LIST*
D10*
X58831000Y-104202000D03*
X47831000Y-104202000D03*
D11*
X48331000Y-108002000D03*
X53331000Y-110102000D03*
D12*
X53331000Y-104202000D03*
D13*
X249272726Y-74535274D03*
X248106000Y-74052000D03*
X246939274Y-74535274D03*
X246456000Y-75702000D03*
X246939274Y-76868726D03*
X248106000Y-77352000D03*
X249272726Y-76868726D03*
X249756000Y-75702000D03*
D14*
X248106000Y-75702000D03*
X155356000Y-94702000D03*
D13*
X157006000Y-94702000D03*
X156522726Y-95868726D03*
X155356000Y-96352000D03*
X154189274Y-95868726D03*
X153706000Y-94702000D03*
X154189274Y-93535274D03*
X155356000Y-93052000D03*
X156522726Y-93535274D03*
X249272726Y-112535274D03*
X248106000Y-112052000D03*
X246939274Y-112535274D03*
X246456000Y-113702000D03*
X246939274Y-114868726D03*
X248106000Y-115352000D03*
X249272726Y-114868726D03*
X249756000Y-113702000D03*
D14*
X248106000Y-113702000D03*
D13*
X63772726Y-74535274D03*
X62606000Y-74052000D03*
X61439274Y-74535274D03*
X60956000Y-75702000D03*
X61439274Y-76868726D03*
X62606000Y-77352000D03*
X63772726Y-76868726D03*
X64256000Y-75702000D03*
D14*
X62606000Y-75702000D03*
D13*
X63772726Y-112535274D03*
X62606000Y-112052000D03*
X61439274Y-112535274D03*
X60956000Y-113702000D03*
X61439274Y-114868726D03*
X62606000Y-115352000D03*
X63772726Y-114868726D03*
X64256000Y-113702000D03*
D14*
X62606000Y-113702000D03*
D10*
X58831000Y-85202000D03*
X47831000Y-85202000D03*
D11*
X48331000Y-89002000D03*
X53331000Y-91102000D03*
D12*
X53331000Y-85202000D03*
D15*
X262316000Y-113702000D03*
D16*
X252156000Y-113702000D03*
D15*
X262656000Y-94702000D03*
D16*
X252496000Y-94702000D03*
D15*
X262316000Y-75702000D03*
D16*
X252156000Y-75702000D03*
D15*
X243816000Y-75702000D03*
D16*
X233656000Y-75702000D03*
D15*
X248156000Y-128362000D03*
D16*
X248156000Y-118202000D03*
D15*
X248156000Y-98642000D03*
D16*
X248156000Y-108802000D03*
D15*
X248156000Y-81542000D03*
D16*
X248156000Y-91702000D03*
D15*
X248156000Y-60942000D03*
D16*
X248156000Y-71102000D03*
D15*
X229656000Y-126862000D03*
D16*
X229656000Y-116702000D03*
D15*
X229656000Y-100542000D03*
D16*
X229656000Y-110702000D03*
D15*
X229156000Y-81542000D03*
D16*
X229156000Y-91702000D03*
D15*
X229656000Y-62542000D03*
D16*
X229656000Y-72702000D03*
D15*
X211156000Y-126862000D03*
D16*
X211156000Y-116702000D03*
D15*
X211156000Y-100542000D03*
D16*
X211156000Y-110702000D03*
D15*
X211156000Y-81542000D03*
D16*
X211156000Y-91702000D03*
D15*
X210656000Y-62542000D03*
D16*
X210656000Y-72702000D03*
D15*
X192656000Y-126862000D03*
D16*
X192656000Y-116702000D03*
D15*
X192156000Y-100542000D03*
D16*
X192156000Y-110702000D03*
D15*
X192656000Y-81542000D03*
D16*
X192656000Y-91702000D03*
D15*
X192156000Y-62542000D03*
D16*
X192156000Y-72702000D03*
D15*
X174156000Y-126862000D03*
D16*
X174156000Y-116702000D03*
D15*
X173656000Y-100542000D03*
D16*
X173656000Y-110702000D03*
D15*
X173656000Y-81542000D03*
D16*
X173656000Y-91702000D03*
D15*
X173656000Y-62542000D03*
D16*
X173656000Y-72702000D03*
D15*
X155656000Y-126862000D03*
D16*
X155656000Y-116702000D03*
D15*
X155156000Y-100542000D03*
D16*
X155156000Y-110702000D03*
D15*
X155256000Y-79942000D03*
D16*
X155256000Y-90102000D03*
D15*
X155156000Y-62542000D03*
D16*
X155156000Y-72702000D03*
D15*
X136656000Y-126862000D03*
D16*
X136656000Y-116702000D03*
D15*
X136656000Y-100542000D03*
D16*
X136656000Y-110702000D03*
D15*
X136656000Y-81542000D03*
D16*
X136656000Y-91702000D03*
D15*
X136656000Y-62542000D03*
D16*
X136656000Y-72702000D03*
D15*
X118156000Y-126862000D03*
D16*
X118156000Y-116702000D03*
D15*
X114156000Y-113702000D03*
D16*
X103996000Y-113702000D03*
D15*
X114316000Y-94702000D03*
D16*
X104156000Y-94702000D03*
D15*
X121996000Y-75702000D03*
D16*
X132156000Y-75702000D03*
D15*
X99656000Y-126862000D03*
D16*
X99656000Y-116702000D03*
D15*
X95156000Y-113702000D03*
D16*
X84996000Y-113702000D03*
D15*
X100316000Y-94702000D03*
D16*
X90156000Y-94702000D03*
D15*
X85496000Y-75702000D03*
D16*
X95656000Y-75702000D03*
D15*
X81156000Y-126862000D03*
D16*
X81156000Y-116702000D03*
D15*
X81156000Y-100542000D03*
D16*
X81156000Y-110702000D03*
D15*
X81156000Y-81542000D03*
D16*
X81156000Y-91702000D03*
D15*
X81156000Y-62542000D03*
D16*
X81156000Y-72702000D03*
D15*
X62656000Y-128262000D03*
D16*
X62656000Y-118102000D03*
D15*
X62556000Y-99142000D03*
D16*
X62556000Y-109302000D03*
D15*
X62656000Y-81542000D03*
D16*
X62656000Y-91702000D03*
D15*
X62656000Y-60942000D03*
D16*
X62656000Y-71102000D03*
D10*
X95931000Y-66202000D03*
X84931000Y-66202000D03*
D11*
X85431000Y-70002000D03*
X90431000Y-72102000D03*
D12*
X90431000Y-66202000D03*
D17*
X116605500Y-60512000D03*
X101365500Y-88452000D03*
X116605500Y-63052000D03*
X116605500Y-65592000D03*
X116605500Y-68132000D03*
X116605500Y-70672000D03*
X116605500Y-73212000D03*
X116605500Y-75752000D03*
X116605500Y-78292000D03*
X116605500Y-80832000D03*
X116605500Y-83372000D03*
X116605500Y-85912000D03*
X116605500Y-88452000D03*
X101365500Y-85912000D03*
X101365500Y-83372000D03*
X101365500Y-80832000D03*
X101365500Y-78292000D03*
X101365500Y-75752000D03*
X101365500Y-73212000D03*
X101365500Y-70672000D03*
X101365500Y-68132000D03*
X101365500Y-65592000D03*
X101365500Y-63052000D03*
D18*
X101365500Y-60512000D03*
D10*
X262881000Y-123202000D03*
X251881000Y-123202000D03*
D11*
X252381000Y-127002000D03*
X257381000Y-129102000D03*
D12*
X257381000Y-123202000D03*
D10*
X262881000Y-104202000D03*
X251881000Y-104202000D03*
D11*
X252381000Y-108002000D03*
X257381000Y-110102000D03*
D12*
X257381000Y-104202000D03*
D10*
X262881000Y-85202000D03*
X251881000Y-85202000D03*
D11*
X252381000Y-89002000D03*
X257381000Y-91102000D03*
D12*
X257381000Y-85202000D03*
D10*
X262881000Y-66202000D03*
X251881000Y-66202000D03*
D11*
X252381000Y-70002000D03*
X257381000Y-72102000D03*
D12*
X257381000Y-66202000D03*
D10*
X244331000Y-123202000D03*
X233331000Y-123202000D03*
D11*
X233831000Y-127002000D03*
X238831000Y-129102000D03*
D12*
X238831000Y-123202000D03*
D10*
X244331000Y-104202000D03*
X233331000Y-104202000D03*
D11*
X233831000Y-108002000D03*
X238831000Y-110102000D03*
D12*
X238831000Y-104202000D03*
D10*
X244331000Y-85202000D03*
X233331000Y-85202000D03*
D11*
X233831000Y-89002000D03*
X238831000Y-91102000D03*
D12*
X238831000Y-85202000D03*
D10*
X244331000Y-66202000D03*
X233331000Y-66202000D03*
D11*
X233831000Y-70002000D03*
X238831000Y-72102000D03*
D12*
X238831000Y-66202000D03*
D10*
X225781000Y-123202000D03*
X214781000Y-123202000D03*
D11*
X215281000Y-127002000D03*
X220281000Y-129102000D03*
D12*
X220281000Y-123202000D03*
D10*
X225781000Y-104202000D03*
X214781000Y-104202000D03*
D11*
X215281000Y-108002000D03*
X220281000Y-110102000D03*
D12*
X220281000Y-104202000D03*
D10*
X225781000Y-85202000D03*
X214781000Y-85202000D03*
D11*
X215281000Y-89002000D03*
X220281000Y-91102000D03*
D12*
X220281000Y-85202000D03*
D10*
X225781000Y-66202000D03*
X214781000Y-66202000D03*
D11*
X215281000Y-70002000D03*
X220281000Y-72102000D03*
D12*
X220281000Y-66202000D03*
D10*
X207231000Y-123202000D03*
X196231000Y-123202000D03*
D11*
X196731000Y-127002000D03*
X201731000Y-129102000D03*
D12*
X201731000Y-123202000D03*
D10*
X207231000Y-104202000D03*
X196231000Y-104202000D03*
D11*
X196731000Y-108002000D03*
X201731000Y-110102000D03*
D12*
X201731000Y-104202000D03*
D10*
X207231000Y-85202000D03*
X196231000Y-85202000D03*
D11*
X196731000Y-89002000D03*
X201731000Y-91102000D03*
D12*
X201731000Y-85202000D03*
D10*
X207231000Y-66202000D03*
X196231000Y-66202000D03*
D11*
X196731000Y-70002000D03*
X201731000Y-72102000D03*
D12*
X201731000Y-66202000D03*
D10*
X188681000Y-123202000D03*
X177681000Y-123202000D03*
D11*
X178181000Y-127002000D03*
X183181000Y-129102000D03*
D12*
X183181000Y-123202000D03*
D10*
X188681000Y-104202000D03*
X177681000Y-104202000D03*
D11*
X178181000Y-108002000D03*
X183181000Y-110102000D03*
D12*
X183181000Y-104202000D03*
D10*
X188681000Y-85202000D03*
X177681000Y-85202000D03*
D11*
X178181000Y-89002000D03*
X183181000Y-91102000D03*
D12*
X183181000Y-85202000D03*
D10*
X188681000Y-66202000D03*
X177681000Y-66202000D03*
D11*
X178181000Y-70002000D03*
X183181000Y-72102000D03*
D12*
X183181000Y-66202000D03*
D10*
X170131000Y-123202000D03*
X159131000Y-123202000D03*
D11*
X159631000Y-127002000D03*
X164631000Y-129102000D03*
D12*
X164631000Y-123202000D03*
D10*
X170131000Y-104202000D03*
X159131000Y-104202000D03*
D11*
X159631000Y-108002000D03*
X164631000Y-110102000D03*
D12*
X164631000Y-104202000D03*
D10*
X170131000Y-85202000D03*
X159131000Y-85202000D03*
D11*
X159631000Y-89002000D03*
X164631000Y-91102000D03*
D12*
X164631000Y-85202000D03*
D10*
X170131000Y-66202000D03*
X159131000Y-66202000D03*
D11*
X159631000Y-70002000D03*
X164631000Y-72102000D03*
D12*
X164631000Y-66202000D03*
D10*
X151581000Y-123202000D03*
X140581000Y-123202000D03*
D11*
X141081000Y-127002000D03*
X146081000Y-129102000D03*
D12*
X146081000Y-123202000D03*
D10*
X151581000Y-104202000D03*
X140581000Y-104202000D03*
D11*
X141081000Y-108002000D03*
X146081000Y-110102000D03*
D12*
X146081000Y-104202000D03*
D10*
X151581000Y-85202000D03*
X140581000Y-85202000D03*
D11*
X141081000Y-89002000D03*
X146081000Y-91102000D03*
D12*
X146081000Y-85202000D03*
D10*
X151581000Y-66202000D03*
X140581000Y-66202000D03*
D11*
X141081000Y-70002000D03*
X146081000Y-72102000D03*
D12*
X146081000Y-66202000D03*
D10*
X133031000Y-123202000D03*
X122031000Y-123202000D03*
D11*
X122531000Y-127002000D03*
X127531000Y-129102000D03*
D12*
X127531000Y-123202000D03*
D10*
X133031000Y-104202000D03*
X122031000Y-104202000D03*
D11*
X122531000Y-108002000D03*
X127531000Y-110102000D03*
D12*
X127531000Y-104202000D03*
D10*
X133031000Y-85202000D03*
X122031000Y-85202000D03*
D11*
X122531000Y-89002000D03*
X127531000Y-91102000D03*
D12*
X127531000Y-85202000D03*
D10*
X133031000Y-66202000D03*
X122031000Y-66202000D03*
D11*
X122531000Y-70002000D03*
X127531000Y-72102000D03*
D12*
X127531000Y-66202000D03*
D10*
X114481000Y-123202000D03*
X103481000Y-123202000D03*
D11*
X103981000Y-127002000D03*
X108981000Y-129102000D03*
D12*
X108981000Y-123202000D03*
D10*
X114481000Y-104202000D03*
X103481000Y-104202000D03*
D11*
X103981000Y-108002000D03*
X108981000Y-110102000D03*
D12*
X108981000Y-104202000D03*
D10*
X114481000Y-85202000D03*
X103481000Y-85202000D03*
D11*
X103981000Y-89002000D03*
X108981000Y-91102000D03*
D12*
X108981000Y-85202000D03*
D10*
X114481000Y-66202000D03*
X103481000Y-66202000D03*
D11*
X103981000Y-70002000D03*
X108981000Y-72102000D03*
D12*
X108981000Y-66202000D03*
D10*
X95931000Y-123202000D03*
X84931000Y-123202000D03*
D11*
X85431000Y-127002000D03*
X90431000Y-129102000D03*
D12*
X90431000Y-123202000D03*
D10*
X95931000Y-104202000D03*
X84931000Y-104202000D03*
D11*
X85431000Y-108002000D03*
X90431000Y-110102000D03*
D12*
X90431000Y-104202000D03*
D10*
X95931000Y-85202000D03*
X84931000Y-85202000D03*
D11*
X85431000Y-89002000D03*
X90431000Y-91102000D03*
D12*
X90431000Y-85202000D03*
D10*
X77381000Y-123202000D03*
X66381000Y-123202000D03*
D11*
X66881000Y-127002000D03*
X71881000Y-129102000D03*
D12*
X71881000Y-123202000D03*
D10*
X77381000Y-104202000D03*
X66381000Y-104202000D03*
D11*
X66881000Y-108002000D03*
X71881000Y-110102000D03*
D12*
X71881000Y-104202000D03*
D10*
X77381000Y-85202000D03*
X66381000Y-85202000D03*
D11*
X66881000Y-89002000D03*
X71881000Y-91102000D03*
D12*
X71881000Y-85202000D03*
D10*
X77381000Y-66202000D03*
X66381000Y-66202000D03*
D11*
X66881000Y-70002000D03*
X71881000Y-72102000D03*
D12*
X71881000Y-66202000D03*
D10*
X58831000Y-123202000D03*
X47831000Y-123202000D03*
D11*
X48331000Y-127002000D03*
X53331000Y-129102000D03*
D12*
X53331000Y-123202000D03*
D10*
X58831000Y-66202000D03*
X47831000Y-66202000D03*
D11*
X48331000Y-70002000D03*
X53331000Y-72102000D03*
D12*
X53331000Y-66202000D03*
M02*
