M48
; DRILL file {KiCad 5.1.9} date Fri Mar 19 21:55:58 2021
; FORMAT={-:-/ absolute / inch / decimal}
; #@! TF.CreationDate,2021-03-19T21:55:58-07:00
; #@! TF.GenerationSoftware,Kicad,Pcbnew,5.1.9
; #@! TF.FileFunction,NonPlated,1,2,NPTH
FMAT,2
INCH
T1C0.0669
T2C0.1339
%
G90
G05
T1
X1.8831Y-2.6064
X1.8831Y-3.3544
X1.8831Y-4.1024
X1.8831Y-4.8505
X2.3162Y-2.6064
X2.3162Y-3.3544
X2.3162Y-4.1024
X2.3162Y-4.8505
X2.6134Y-2.6064
X2.6134Y-3.3544
X2.6134Y-4.1024
X2.6134Y-4.8505
X3.0465Y-2.6064
X3.0465Y-3.3544
X3.0465Y-4.1024
X3.0465Y-4.8505
X3.3437Y-2.6064
X3.3437Y-3.3544
X3.3437Y-4.1024
X3.3437Y-4.8505
X3.7768Y-2.6064
X3.7768Y-3.3544
X3.7768Y-4.1024
X3.7768Y-4.8505
X4.0741Y-2.6064
X4.0741Y-3.3544
X4.0741Y-4.1024
X4.0741Y-4.8505
X4.5071Y-2.6064
X4.5071Y-3.3544
X4.5071Y-4.1024
X4.5071Y-4.8505
X4.8044Y-2.6064
X4.8044Y-3.3544
X4.8044Y-4.1024
X4.8044Y-4.8505
X5.2374Y-2.6064
X5.2374Y-3.3544
X5.2374Y-4.1024
X5.2374Y-4.8505
X5.5347Y-2.6064
X5.5347Y-3.3544
X5.5347Y-4.1024
X5.5347Y-4.8505
X5.9678Y-2.6064
X5.9678Y-3.3544
X5.9678Y-4.1024
X5.9678Y-4.8505
X6.265Y-2.6064
X6.265Y-3.3544
X6.265Y-4.1024
X6.265Y-4.8505
X6.6981Y-2.6064
X6.6981Y-3.3544
X6.6981Y-4.1024
X6.6981Y-4.8505
X6.9953Y-2.6064
X6.9953Y-3.3544
X6.9953Y-4.1024
X6.9953Y-4.8505
X7.4284Y-2.6064
X7.4284Y-3.3544
X7.4284Y-4.1024
X7.4284Y-4.8505
X7.7256Y-2.6064
X7.7256Y-3.3544
X7.7256Y-4.1024
X7.7256Y-4.8505
X8.1587Y-2.6064
X8.1587Y-3.3544
X8.1587Y-4.1024
X8.1587Y-4.8505
X8.4559Y-2.6064
X8.4559Y-3.3544
X8.4559Y-4.1024
X8.4559Y-4.8505
X8.889Y-2.6064
X8.889Y-3.3544
X8.889Y-4.1024
X8.889Y-4.8505
X9.1863Y-2.6064
X9.1863Y-3.3544
X9.1863Y-4.1024
X9.1863Y-4.8505
X9.6193Y-2.6064
X9.6193Y-3.3544
X9.6193Y-4.1024
X9.6193Y-4.8505
X9.9166Y-2.6064
X9.9166Y-3.3544
X9.9166Y-4.1024
X9.9166Y-4.8505
X10.3496Y-2.6064
X10.3496Y-3.3544
X10.3496Y-4.1024
X10.3496Y-4.8505
T2
X2.0996Y-2.6064
X2.0996Y-3.3544
X2.0996Y-4.1024
X2.0996Y-4.8505
X2.83Y-2.6064
X2.83Y-3.3544
X2.83Y-4.1024
X2.83Y-4.8505
X3.5603Y-2.6064
X3.5603Y-3.3544
X3.5603Y-4.1024
X3.5603Y-4.8505
X4.2906Y-2.6064
X4.2906Y-3.3544
X4.2906Y-4.1024
X4.2906Y-4.8505
X5.0209Y-2.6064
X5.0209Y-3.3544
X5.0209Y-4.1024
X5.0209Y-4.8505
X5.7512Y-2.6064
X5.7512Y-3.3544
X5.7512Y-4.1024
X5.7512Y-4.8505
X6.4815Y-2.6064
X6.4815Y-3.3544
X6.4815Y-4.1024
X6.4815Y-4.8505
X7.2119Y-2.6064
X7.2119Y-3.3544
X7.2119Y-4.1024
X7.2119Y-4.8505
X7.9422Y-2.6064
X7.9422Y-3.3544
X7.9422Y-4.1024
X7.9422Y-4.8505
X8.6725Y-2.6064
X8.6725Y-3.3544
X8.6725Y-4.1024
X8.6725Y-4.8505
X9.4028Y-2.6064
X9.4028Y-3.3544
X9.4028Y-4.1024
X9.4028Y-4.8505
X10.1331Y-2.6064
X10.1331Y-3.3544
X10.1331Y-4.1024
X10.1331Y-4.8505
T0
M30
