G04 #@! TF.GenerationSoftware,KiCad,Pcbnew,5.1.9*
G04 #@! TF.CreationDate,2021-03-19T21:55:44-07:00*
G04 #@! TF.ProjectId,choc-40,63686f63-2d34-4302-9e6b-696361645f70,rev?*
G04 #@! TF.SameCoordinates,Original*
G04 #@! TF.FileFunction,Legend,Top*
G04 #@! TF.FilePolarity,Positive*
%FSLAX46Y46*%
G04 Gerber Fmt 4.6, Leading zero omitted, Abs format (unit mm)*
G04 Created by KiCad (PCBNEW 5.1.9) date 2021-03-19 21:55:44*
%MOMM*%
%LPD*%
G01*
G04 APERTURE LIST*
%ADD10C,0.381000*%
%ADD11C,0.150000*%
%ADD12C,0.100000*%
G04 APERTURE END LIST*
D10*
X102635500Y-59242000D02*
X100095500Y-59242000D01*
X100095500Y-56702000D02*
X100095500Y-59242000D01*
X117875500Y-56702000D02*
X100095500Y-56702000D01*
X117875500Y-59242000D02*
X117875500Y-56702000D01*
D11*
G36*
X113917068Y-65721360D02*
G01*
X113917068Y-65921360D01*
X113817068Y-65921360D01*
X113817068Y-65721360D01*
X113917068Y-65721360D01*
G37*
X113917068Y-65721360D02*
X113917068Y-65921360D01*
X113817068Y-65921360D01*
X113817068Y-65721360D01*
X113917068Y-65721360D01*
G36*
X113517068Y-65121360D02*
G01*
X113517068Y-65921360D01*
X113417068Y-65921360D01*
X113417068Y-65121360D01*
X113517068Y-65121360D01*
G37*
X113517068Y-65121360D02*
X113517068Y-65921360D01*
X113417068Y-65921360D01*
X113417068Y-65121360D01*
X113517068Y-65121360D01*
G36*
X113917068Y-65121360D02*
G01*
X113917068Y-65221360D01*
X113417068Y-65221360D01*
X113417068Y-65121360D01*
X113917068Y-65121360D01*
G37*
X113917068Y-65121360D02*
X113917068Y-65221360D01*
X113417068Y-65221360D01*
X113417068Y-65121360D01*
X113917068Y-65121360D01*
G36*
X113717068Y-65521360D02*
G01*
X113717068Y-65621360D01*
X113617068Y-65621360D01*
X113617068Y-65521360D01*
X113717068Y-65521360D01*
G37*
X113717068Y-65521360D02*
X113717068Y-65621360D01*
X113617068Y-65621360D01*
X113617068Y-65521360D01*
X113717068Y-65521360D01*
G36*
X113917068Y-65121360D02*
G01*
X113917068Y-65421360D01*
X113817068Y-65421360D01*
X113817068Y-65121360D01*
X113917068Y-65121360D01*
G37*
X113917068Y-65121360D02*
X113917068Y-65421360D01*
X113817068Y-65421360D01*
X113817068Y-65121360D01*
X113917068Y-65121360D01*
D10*
X102635500Y-61782000D02*
X100095500Y-61782000D01*
X102635500Y-59242000D02*
X102635500Y-61782000D01*
X117875500Y-89722000D02*
X117875500Y-59242000D01*
X100095500Y-89722000D02*
X117875500Y-89722000D01*
X100095500Y-59242000D02*
X100095500Y-89722000D01*
D12*
X117431800Y-60512000D02*
G75*
G03*
X117431800Y-60512000I-826300J0D01*
G01*
X102191800Y-88452000D02*
G75*
G03*
X102191800Y-88452000I-826300J0D01*
G01*
X117431800Y-63052000D02*
G75*
G03*
X117431800Y-63052000I-826300J0D01*
G01*
X117431800Y-65592000D02*
G75*
G03*
X117431800Y-65592000I-826300J0D01*
G01*
X117431800Y-68132000D02*
G75*
G03*
X117431800Y-68132000I-826300J0D01*
G01*
X117431800Y-70672000D02*
G75*
G03*
X117431800Y-70672000I-826300J0D01*
G01*
X117431800Y-73212000D02*
G75*
G03*
X117431800Y-73212000I-826300J0D01*
G01*
X117431800Y-75752000D02*
G75*
G03*
X117431800Y-75752000I-826300J0D01*
G01*
X117431800Y-78292000D02*
G75*
G03*
X117431800Y-78292000I-826300J0D01*
G01*
X117431800Y-80832000D02*
G75*
G03*
X117431800Y-80832000I-826300J0D01*
G01*
X117431800Y-83372000D02*
G75*
G03*
X117431800Y-83372000I-826300J0D01*
G01*
X117431800Y-85912000D02*
G75*
G03*
X117431800Y-85912000I-826300J0D01*
G01*
X117431800Y-88452000D02*
G75*
G03*
X117431800Y-88452000I-826300J0D01*
G01*
X102191800Y-85912000D02*
G75*
G03*
X102191800Y-85912000I-826300J0D01*
G01*
X102191800Y-83372000D02*
G75*
G03*
X102191800Y-83372000I-826300J0D01*
G01*
X102191800Y-80832000D02*
G75*
G03*
X102191800Y-80832000I-826300J0D01*
G01*
X102191800Y-78292000D02*
G75*
G03*
X102191800Y-78292000I-826300J0D01*
G01*
X102191800Y-75752000D02*
G75*
G03*
X102191800Y-75752000I-826300J0D01*
G01*
X102191800Y-73212000D02*
G75*
G03*
X102191800Y-73212000I-826300J0D01*
G01*
X102191800Y-70672000D02*
G75*
G03*
X102191800Y-70672000I-826300J0D01*
G01*
X102191800Y-68132000D02*
G75*
G03*
X102191800Y-68132000I-826300J0D01*
G01*
X102191800Y-65592000D02*
G75*
G03*
X102191800Y-65592000I-826300J0D01*
G01*
X102191800Y-63052000D02*
G75*
G03*
X102191800Y-63052000I-826300J0D01*
G01*
X100539200Y-59685700D02*
X100539200Y-61338300D01*
X102191800Y-61338300D01*
X102191800Y-59685700D01*
X100539200Y-59685700D01*
D11*
X247344095Y-72954380D02*
X247344095Y-71954380D01*
X247344095Y-72430571D02*
X247915523Y-72430571D01*
X247915523Y-72954380D02*
X247915523Y-71954380D01*
X248867904Y-71954380D02*
X248391714Y-71954380D01*
X248344095Y-72430571D01*
X248391714Y-72382952D01*
X248486952Y-72335333D01*
X248725047Y-72335333D01*
X248820285Y-72382952D01*
X248867904Y-72430571D01*
X248915523Y-72525809D01*
X248915523Y-72763904D01*
X248867904Y-72859142D01*
X248820285Y-72906761D01*
X248725047Y-72954380D01*
X248486952Y-72954380D01*
X248391714Y-72906761D01*
X248344095Y-72859142D01*
X154594095Y-91954380D02*
X154594095Y-90954380D01*
X154594095Y-91430571D02*
X155165523Y-91430571D01*
X155165523Y-91954380D02*
X155165523Y-90954380D01*
X156070285Y-91287714D02*
X156070285Y-91954380D01*
X155832190Y-90906761D02*
X155594095Y-91621047D01*
X156213142Y-91621047D01*
X247344095Y-110954380D02*
X247344095Y-109954380D01*
X247344095Y-110430571D02*
X247915523Y-110430571D01*
X247915523Y-110954380D02*
X247915523Y-109954380D01*
X248296476Y-109954380D02*
X248915523Y-109954380D01*
X248582190Y-110335333D01*
X248725047Y-110335333D01*
X248820285Y-110382952D01*
X248867904Y-110430571D01*
X248915523Y-110525809D01*
X248915523Y-110763904D01*
X248867904Y-110859142D01*
X248820285Y-110906761D01*
X248725047Y-110954380D01*
X248439333Y-110954380D01*
X248344095Y-110906761D01*
X248296476Y-110859142D01*
X61844095Y-72954380D02*
X61844095Y-71954380D01*
X61844095Y-72430571D02*
X62415523Y-72430571D01*
X62415523Y-72954380D02*
X62415523Y-71954380D01*
X62844095Y-72049619D02*
X62891714Y-72002000D01*
X62986952Y-71954380D01*
X63225047Y-71954380D01*
X63320285Y-72002000D01*
X63367904Y-72049619D01*
X63415523Y-72144857D01*
X63415523Y-72240095D01*
X63367904Y-72382952D01*
X62796476Y-72954380D01*
X63415523Y-72954380D01*
X61794095Y-110854380D02*
X61794095Y-109854380D01*
X61794095Y-110330571D02*
X62365523Y-110330571D01*
X62365523Y-110854380D02*
X62365523Y-109854380D01*
X63365523Y-110854380D02*
X62794095Y-110854380D01*
X63079809Y-110854380D02*
X63079809Y-109854380D01*
X62984571Y-109997238D01*
X62889333Y-110092476D01*
X62794095Y-110140095D01*
X103223151Y-60073904D02*
X103680294Y-60073904D01*
X103451723Y-60873904D02*
X103451723Y-60073904D01*
X103870770Y-60073904D02*
X104404104Y-60873904D01*
X104404104Y-60073904D02*
X103870770Y-60873904D01*
X104861247Y-60073904D02*
X104937437Y-60073904D01*
X105013628Y-60112000D01*
X105051723Y-60150095D01*
X105089818Y-60226285D01*
X105127913Y-60378666D01*
X105127913Y-60569142D01*
X105089818Y-60721523D01*
X105051723Y-60797714D01*
X105013628Y-60835809D01*
X104937437Y-60873904D01*
X104861247Y-60873904D01*
X104785056Y-60835809D01*
X104746961Y-60797714D01*
X104708866Y-60721523D01*
X104670770Y-60569142D01*
X104670770Y-60378666D01*
X104708866Y-60226285D01*
X104746961Y-60150095D01*
X104785056Y-60112000D01*
X104861247Y-60073904D01*
X106042199Y-60035809D02*
X105356485Y-61064380D01*
X106308866Y-60873904D02*
X106308866Y-60073904D01*
X106499342Y-60073904D01*
X106613628Y-60112000D01*
X106689818Y-60188190D01*
X106727913Y-60264380D01*
X106766008Y-60416761D01*
X106766008Y-60531047D01*
X106727913Y-60683428D01*
X106689818Y-60759619D01*
X106613628Y-60835809D01*
X106499342Y-60873904D01*
X106308866Y-60873904D01*
X107032675Y-60073904D02*
X107527913Y-60073904D01*
X107261247Y-60378666D01*
X107375532Y-60378666D01*
X107451723Y-60416761D01*
X107489818Y-60454857D01*
X107527913Y-60531047D01*
X107527913Y-60721523D01*
X107489818Y-60797714D01*
X107451723Y-60835809D01*
X107375532Y-60873904D01*
X107146961Y-60873904D01*
X107070770Y-60835809D01*
X107032675Y-60797714D01*
X102934023Y-63413904D02*
X102934023Y-62613904D01*
X103124500Y-62613904D01*
X103238785Y-62652000D01*
X103314976Y-62728190D01*
X103353071Y-62804380D01*
X103391166Y-62956761D01*
X103391166Y-63071047D01*
X103353071Y-63223428D01*
X103314976Y-63299619D01*
X103238785Y-63375809D01*
X103124500Y-63413904D01*
X102934023Y-63413904D01*
X103695928Y-62690095D02*
X103734023Y-62652000D01*
X103810214Y-62613904D01*
X104000690Y-62613904D01*
X104076880Y-62652000D01*
X104114976Y-62690095D01*
X104153071Y-62766285D01*
X104153071Y-62842476D01*
X104114976Y-62956761D01*
X103657833Y-63413904D01*
X104153071Y-63413904D01*
X102934023Y-73573904D02*
X102934023Y-72773904D01*
X103124500Y-72773904D01*
X103238785Y-72812000D01*
X103314976Y-72888190D01*
X103353071Y-72964380D01*
X103391166Y-73116761D01*
X103391166Y-73231047D01*
X103353071Y-73383428D01*
X103314976Y-73459619D01*
X103238785Y-73535809D01*
X103124500Y-73573904D01*
X102934023Y-73573904D01*
X103886404Y-72773904D02*
X103962595Y-72773904D01*
X104038785Y-72812000D01*
X104076880Y-72850095D01*
X104114976Y-72926285D01*
X104153071Y-73078666D01*
X104153071Y-73269142D01*
X104114976Y-73421523D01*
X104076880Y-73497714D01*
X104038785Y-73535809D01*
X103962595Y-73573904D01*
X103886404Y-73573904D01*
X103810214Y-73535809D01*
X103772119Y-73497714D01*
X103734023Y-73421523D01*
X103695928Y-73269142D01*
X103695928Y-73078666D01*
X103734023Y-72926285D01*
X103772119Y-72850095D01*
X103810214Y-72812000D01*
X103886404Y-72773904D01*
X102934023Y-71033904D02*
X102934023Y-70233904D01*
X103124500Y-70233904D01*
X103238785Y-70272000D01*
X103314976Y-70348190D01*
X103353071Y-70424380D01*
X103391166Y-70576761D01*
X103391166Y-70691047D01*
X103353071Y-70843428D01*
X103314976Y-70919619D01*
X103238785Y-70995809D01*
X103124500Y-71033904D01*
X102934023Y-71033904D01*
X104153071Y-71033904D02*
X103695928Y-71033904D01*
X103924500Y-71033904D02*
X103924500Y-70233904D01*
X103848309Y-70348190D01*
X103772119Y-70424380D01*
X103695928Y-70462476D01*
X102914976Y-67732000D02*
X102838785Y-67693904D01*
X102724500Y-67693904D01*
X102610214Y-67732000D01*
X102534023Y-67808190D01*
X102495928Y-67884380D01*
X102457833Y-68036761D01*
X102457833Y-68151047D01*
X102495928Y-68303428D01*
X102534023Y-68379619D01*
X102610214Y-68455809D01*
X102724500Y-68493904D01*
X102800690Y-68493904D01*
X102914976Y-68455809D01*
X102953071Y-68417714D01*
X102953071Y-68151047D01*
X102800690Y-68151047D01*
X103295928Y-68493904D02*
X103295928Y-67693904D01*
X103753071Y-68493904D01*
X103753071Y-67693904D01*
X104134023Y-68493904D02*
X104134023Y-67693904D01*
X104324500Y-67693904D01*
X104438785Y-67732000D01*
X104514976Y-67808190D01*
X104553071Y-67884380D01*
X104591166Y-68036761D01*
X104591166Y-68151047D01*
X104553071Y-68303428D01*
X104514976Y-68379619D01*
X104438785Y-68455809D01*
X104324500Y-68493904D01*
X104134023Y-68493904D01*
X102914976Y-65192000D02*
X102838785Y-65153904D01*
X102724500Y-65153904D01*
X102610214Y-65192000D01*
X102534023Y-65268190D01*
X102495928Y-65344380D01*
X102457833Y-65496761D01*
X102457833Y-65611047D01*
X102495928Y-65763428D01*
X102534023Y-65839619D01*
X102610214Y-65915809D01*
X102724500Y-65953904D01*
X102800690Y-65953904D01*
X102914976Y-65915809D01*
X102953071Y-65877714D01*
X102953071Y-65611047D01*
X102800690Y-65611047D01*
X103295928Y-65953904D02*
X103295928Y-65153904D01*
X103753071Y-65953904D01*
X103753071Y-65153904D01*
X104134023Y-65953904D02*
X104134023Y-65153904D01*
X104324500Y-65153904D01*
X104438785Y-65192000D01*
X104514976Y-65268190D01*
X104553071Y-65344380D01*
X104591166Y-65496761D01*
X104591166Y-65611047D01*
X104553071Y-65763428D01*
X104514976Y-65839619D01*
X104438785Y-65915809D01*
X104324500Y-65953904D01*
X104134023Y-65953904D01*
X102934023Y-76113904D02*
X102934023Y-75313904D01*
X103124500Y-75313904D01*
X103238785Y-75352000D01*
X103314976Y-75428190D01*
X103353071Y-75504380D01*
X103391166Y-75656761D01*
X103391166Y-75771047D01*
X103353071Y-75923428D01*
X103314976Y-75999619D01*
X103238785Y-76075809D01*
X103124500Y-76113904D01*
X102934023Y-76113904D01*
X104076880Y-75580571D02*
X104076880Y-76113904D01*
X103886404Y-75275809D02*
X103695928Y-75847238D01*
X104191166Y-75847238D01*
X103391166Y-78577714D02*
X103353071Y-78615809D01*
X103238785Y-78653904D01*
X103162595Y-78653904D01*
X103048309Y-78615809D01*
X102972119Y-78539619D01*
X102934023Y-78463428D01*
X102895928Y-78311047D01*
X102895928Y-78196761D01*
X102934023Y-78044380D01*
X102972119Y-77968190D01*
X103048309Y-77892000D01*
X103162595Y-77853904D01*
X103238785Y-77853904D01*
X103353071Y-77892000D01*
X103391166Y-77930095D01*
X104076880Y-77853904D02*
X103924500Y-77853904D01*
X103848309Y-77892000D01*
X103810214Y-77930095D01*
X103734023Y-78044380D01*
X103695928Y-78196761D01*
X103695928Y-78501523D01*
X103734023Y-78577714D01*
X103772119Y-78615809D01*
X103848309Y-78653904D01*
X104000690Y-78653904D01*
X104076880Y-78615809D01*
X104114976Y-78577714D01*
X104153071Y-78501523D01*
X104153071Y-78311047D01*
X104114976Y-78234857D01*
X104076880Y-78196761D01*
X104000690Y-78158666D01*
X103848309Y-78158666D01*
X103772119Y-78196761D01*
X103734023Y-78234857D01*
X103695928Y-78311047D01*
X102934023Y-81193904D02*
X102934023Y-80393904D01*
X103124500Y-80393904D01*
X103238785Y-80432000D01*
X103314976Y-80508190D01*
X103353071Y-80584380D01*
X103391166Y-80736761D01*
X103391166Y-80851047D01*
X103353071Y-81003428D01*
X103314976Y-81079619D01*
X103238785Y-81155809D01*
X103124500Y-81193904D01*
X102934023Y-81193904D01*
X103657833Y-80393904D02*
X104191166Y-80393904D01*
X103848309Y-81193904D01*
X102972119Y-83314857D02*
X103238785Y-83314857D01*
X103353071Y-83733904D02*
X102972119Y-83733904D01*
X102972119Y-82933904D01*
X103353071Y-82933904D01*
X104038785Y-82933904D02*
X103886404Y-82933904D01*
X103810214Y-82972000D01*
X103772119Y-83010095D01*
X103695928Y-83124380D01*
X103657833Y-83276761D01*
X103657833Y-83581523D01*
X103695928Y-83657714D01*
X103734023Y-83695809D01*
X103810214Y-83733904D01*
X103962595Y-83733904D01*
X104038785Y-83695809D01*
X104076880Y-83657714D01*
X104114976Y-83581523D01*
X104114976Y-83391047D01*
X104076880Y-83314857D01*
X104038785Y-83276761D01*
X103962595Y-83238666D01*
X103810214Y-83238666D01*
X103734023Y-83276761D01*
X103695928Y-83314857D01*
X103657833Y-83391047D01*
X103200690Y-85854857D02*
X103314976Y-85892952D01*
X103353071Y-85931047D01*
X103391166Y-86007238D01*
X103391166Y-86121523D01*
X103353071Y-86197714D01*
X103314976Y-86235809D01*
X103238785Y-86273904D01*
X102934023Y-86273904D01*
X102934023Y-85473904D01*
X103200690Y-85473904D01*
X103276880Y-85512000D01*
X103314976Y-85550095D01*
X103353071Y-85626285D01*
X103353071Y-85702476D01*
X103314976Y-85778666D01*
X103276880Y-85816761D01*
X103200690Y-85854857D01*
X102934023Y-85854857D01*
X104076880Y-85740571D02*
X104076880Y-86273904D01*
X103886404Y-85435809D02*
X103695928Y-86007238D01*
X104191166Y-86007238D01*
X103200690Y-88394857D02*
X103314976Y-88432952D01*
X103353071Y-88471047D01*
X103391166Y-88547238D01*
X103391166Y-88661523D01*
X103353071Y-88737714D01*
X103314976Y-88775809D01*
X103238785Y-88813904D01*
X102934023Y-88813904D01*
X102934023Y-88013904D01*
X103200690Y-88013904D01*
X103276880Y-88052000D01*
X103314976Y-88090095D01*
X103353071Y-88166285D01*
X103353071Y-88242476D01*
X103314976Y-88318666D01*
X103276880Y-88356761D01*
X103200690Y-88394857D01*
X102934023Y-88394857D01*
X104114976Y-88013904D02*
X103734023Y-88013904D01*
X103695928Y-88394857D01*
X103734023Y-88356761D01*
X103810214Y-88318666D01*
X104000690Y-88318666D01*
X104076880Y-88356761D01*
X104114976Y-88394857D01*
X104153071Y-88471047D01*
X104153071Y-88661523D01*
X104114976Y-88737714D01*
X104076880Y-88775809D01*
X104000690Y-88813904D01*
X103810214Y-88813904D01*
X103734023Y-88775809D01*
X103695928Y-88737714D01*
X114122690Y-88394857D02*
X114236976Y-88432952D01*
X114275071Y-88471047D01*
X114313166Y-88547238D01*
X114313166Y-88661523D01*
X114275071Y-88737714D01*
X114236976Y-88775809D01*
X114160785Y-88813904D01*
X113856023Y-88813904D01*
X113856023Y-88013904D01*
X114122690Y-88013904D01*
X114198880Y-88052000D01*
X114236976Y-88090095D01*
X114275071Y-88166285D01*
X114275071Y-88242476D01*
X114236976Y-88318666D01*
X114198880Y-88356761D01*
X114122690Y-88394857D01*
X113856023Y-88394857D01*
X114998880Y-88013904D02*
X114846500Y-88013904D01*
X114770309Y-88052000D01*
X114732214Y-88090095D01*
X114656023Y-88204380D01*
X114617928Y-88356761D01*
X114617928Y-88661523D01*
X114656023Y-88737714D01*
X114694119Y-88775809D01*
X114770309Y-88813904D01*
X114922690Y-88813904D01*
X114998880Y-88775809D01*
X115036976Y-88737714D01*
X115075071Y-88661523D01*
X115075071Y-88471047D01*
X115036976Y-88394857D01*
X114998880Y-88356761D01*
X114922690Y-88318666D01*
X114770309Y-88318666D01*
X114694119Y-88356761D01*
X114656023Y-88394857D01*
X114617928Y-88471047D01*
X114122690Y-83314857D02*
X114236976Y-83352952D01*
X114275071Y-83391047D01*
X114313166Y-83467238D01*
X114313166Y-83581523D01*
X114275071Y-83657714D01*
X114236976Y-83695809D01*
X114160785Y-83733904D01*
X113856023Y-83733904D01*
X113856023Y-82933904D01*
X114122690Y-82933904D01*
X114198880Y-82972000D01*
X114236976Y-83010095D01*
X114275071Y-83086285D01*
X114275071Y-83162476D01*
X114236976Y-83238666D01*
X114198880Y-83276761D01*
X114122690Y-83314857D01*
X113856023Y-83314857D01*
X114579833Y-82933904D02*
X115075071Y-82933904D01*
X114808404Y-83238666D01*
X114922690Y-83238666D01*
X114998880Y-83276761D01*
X115036976Y-83314857D01*
X115075071Y-83391047D01*
X115075071Y-83581523D01*
X115036976Y-83657714D01*
X114998880Y-83695809D01*
X114922690Y-83733904D01*
X114694119Y-83733904D01*
X114617928Y-83695809D01*
X114579833Y-83657714D01*
X114122690Y-80774857D02*
X114236976Y-80812952D01*
X114275071Y-80851047D01*
X114313166Y-80927238D01*
X114313166Y-81041523D01*
X114275071Y-81117714D01*
X114236976Y-81155809D01*
X114160785Y-81193904D01*
X113856023Y-81193904D01*
X113856023Y-80393904D01*
X114122690Y-80393904D01*
X114198880Y-80432000D01*
X114236976Y-80470095D01*
X114275071Y-80546285D01*
X114275071Y-80622476D01*
X114236976Y-80698666D01*
X114198880Y-80736761D01*
X114122690Y-80774857D01*
X113856023Y-80774857D01*
X115075071Y-81193904D02*
X114617928Y-81193904D01*
X114846500Y-81193904D02*
X114846500Y-80393904D01*
X114770309Y-80508190D01*
X114694119Y-80584380D01*
X114617928Y-80622476D01*
X114179833Y-70614857D02*
X113913166Y-70614857D01*
X113913166Y-71033904D02*
X113913166Y-70233904D01*
X114294119Y-70233904D01*
X114941738Y-70500571D02*
X114941738Y-71033904D01*
X114751261Y-70195809D02*
X114560785Y-70767238D01*
X115056023Y-70767238D01*
X113379833Y-67693904D02*
X113646500Y-68493904D01*
X113913166Y-67693904D01*
X114636976Y-68417714D02*
X114598880Y-68455809D01*
X114484595Y-68493904D01*
X114408404Y-68493904D01*
X114294119Y-68455809D01*
X114217928Y-68379619D01*
X114179833Y-68303428D01*
X114141738Y-68151047D01*
X114141738Y-68036761D01*
X114179833Y-67884380D01*
X114217928Y-67808190D01*
X114294119Y-67732000D01*
X114408404Y-67693904D01*
X114484595Y-67693904D01*
X114598880Y-67732000D01*
X114636976Y-67770095D01*
X115436976Y-68417714D02*
X115398880Y-68455809D01*
X115284595Y-68493904D01*
X115208404Y-68493904D01*
X115094119Y-68455809D01*
X115017928Y-68379619D01*
X114979833Y-68303428D01*
X114941738Y-68151047D01*
X114941738Y-68036761D01*
X114979833Y-67884380D01*
X115017928Y-67808190D01*
X115094119Y-67732000D01*
X115208404Y-67693904D01*
X115284595Y-67693904D01*
X115398880Y-67732000D01*
X115436976Y-67770095D01*
X114185286Y-65885809D02*
X114299572Y-65923904D01*
X114490048Y-65923904D01*
X114566239Y-65885809D01*
X114604334Y-65847714D01*
X114642429Y-65771523D01*
X114642429Y-65695333D01*
X114604334Y-65619142D01*
X114566239Y-65581047D01*
X114490048Y-65542952D01*
X114337667Y-65504857D01*
X114261477Y-65466761D01*
X114223381Y-65428666D01*
X114185286Y-65352476D01*
X114185286Y-65276285D01*
X114223381Y-65200095D01*
X114261477Y-65162000D01*
X114337667Y-65123904D01*
X114528143Y-65123904D01*
X114642429Y-65162000D01*
X114871000Y-65123904D02*
X115328143Y-65123904D01*
X115099572Y-65923904D02*
X115099572Y-65123904D01*
X113836976Y-62652000D02*
X113760785Y-62613904D01*
X113646500Y-62613904D01*
X113532214Y-62652000D01*
X113456023Y-62728190D01*
X113417928Y-62804380D01*
X113379833Y-62956761D01*
X113379833Y-63071047D01*
X113417928Y-63223428D01*
X113456023Y-63299619D01*
X113532214Y-63375809D01*
X113646500Y-63413904D01*
X113722690Y-63413904D01*
X113836976Y-63375809D01*
X113875071Y-63337714D01*
X113875071Y-63071047D01*
X113722690Y-63071047D01*
X114217928Y-63413904D02*
X114217928Y-62613904D01*
X114675071Y-63413904D01*
X114675071Y-62613904D01*
X115056023Y-63413904D02*
X115056023Y-62613904D01*
X115246500Y-62613904D01*
X115360785Y-62652000D01*
X115436976Y-62728190D01*
X115475071Y-62804380D01*
X115513166Y-62956761D01*
X115513166Y-63071047D01*
X115475071Y-63223428D01*
X115436976Y-63299619D01*
X115360785Y-63375809D01*
X115246500Y-63413904D01*
X115056023Y-63413904D01*
X113894119Y-60873904D02*
X113627452Y-60492952D01*
X113436976Y-60873904D02*
X113436976Y-60073904D01*
X113741738Y-60073904D01*
X113817928Y-60112000D01*
X113856023Y-60150095D01*
X113894119Y-60226285D01*
X113894119Y-60340571D01*
X113856023Y-60416761D01*
X113817928Y-60454857D01*
X113741738Y-60492952D01*
X113436976Y-60492952D01*
X114198880Y-60645333D02*
X114579833Y-60645333D01*
X114122690Y-60873904D02*
X114389357Y-60073904D01*
X114656023Y-60873904D01*
X114846500Y-60073904D02*
X115036976Y-60873904D01*
X115189357Y-60302476D01*
X115341738Y-60873904D01*
X115532214Y-60073904D01*
X114179833Y-73154857D02*
X113913166Y-73154857D01*
X113913166Y-73573904D02*
X113913166Y-72773904D01*
X114294119Y-72773904D01*
X114979833Y-72773904D02*
X114598880Y-72773904D01*
X114560785Y-73154857D01*
X114598880Y-73116761D01*
X114675071Y-73078666D01*
X114865547Y-73078666D01*
X114941738Y-73116761D01*
X114979833Y-73154857D01*
X115017928Y-73231047D01*
X115017928Y-73421523D01*
X114979833Y-73497714D01*
X114941738Y-73535809D01*
X114865547Y-73573904D01*
X114675071Y-73573904D01*
X114598880Y-73535809D01*
X114560785Y-73497714D01*
X114179833Y-75694857D02*
X113913166Y-75694857D01*
X113913166Y-76113904D02*
X113913166Y-75313904D01*
X114294119Y-75313904D01*
X114941738Y-75313904D02*
X114789357Y-75313904D01*
X114713166Y-75352000D01*
X114675071Y-75390095D01*
X114598880Y-75504380D01*
X114560785Y-75656761D01*
X114560785Y-75961523D01*
X114598880Y-76037714D01*
X114636976Y-76075809D01*
X114713166Y-76113904D01*
X114865547Y-76113904D01*
X114941738Y-76075809D01*
X114979833Y-76037714D01*
X115017928Y-75961523D01*
X115017928Y-75771047D01*
X114979833Y-75694857D01*
X114941738Y-75656761D01*
X114865547Y-75618666D01*
X114713166Y-75618666D01*
X114636976Y-75656761D01*
X114598880Y-75694857D01*
X114560785Y-75771047D01*
X114179833Y-78234857D02*
X113913166Y-78234857D01*
X113913166Y-78653904D02*
X113913166Y-77853904D01*
X114294119Y-77853904D01*
X114522690Y-77853904D02*
X115056023Y-77853904D01*
X114713166Y-78653904D01*
X114122690Y-85854857D02*
X114236976Y-85892952D01*
X114275071Y-85931047D01*
X114313166Y-86007238D01*
X114313166Y-86121523D01*
X114275071Y-86197714D01*
X114236976Y-86235809D01*
X114160785Y-86273904D01*
X113856023Y-86273904D01*
X113856023Y-85473904D01*
X114122690Y-85473904D01*
X114198880Y-85512000D01*
X114236976Y-85550095D01*
X114275071Y-85626285D01*
X114275071Y-85702476D01*
X114236976Y-85778666D01*
X114198880Y-85816761D01*
X114122690Y-85854857D01*
X113856023Y-85854857D01*
X114617928Y-85550095D02*
X114656023Y-85512000D01*
X114732214Y-85473904D01*
X114922690Y-85473904D01*
X114998880Y-85512000D01*
X115036976Y-85550095D01*
X115075071Y-85626285D01*
X115075071Y-85702476D01*
X115036976Y-85816761D01*
X114579833Y-86273904D01*
X115075071Y-86273904D01*
M02*
