M48
; DRILL file {KiCad 5.1.9} date Fri Mar 19 21:55:58 2021
; FORMAT={-:-/ absolute / inch / decimal}
; #@! TF.CreationDate,2021-03-19T21:55:58-07:00
; #@! TF.GenerationSoftware,Kicad,Pcbnew,5.1.9
; #@! TF.FileFunction,Plated,1,2,PTH
FMAT,2
INCH
T1C0.0157
T2C0.0315
T3C0.0430
T4C0.0472
T5C0.0866
%
G90
G05
T1
X2.3998Y-2.9804
X2.3998Y-4.4765
X2.4189Y-2.9345
X2.4189Y-3.0263
X2.4189Y-4.4305
X2.4189Y-4.5224
X2.4648Y-2.9154
X2.4648Y-3.0454
X2.4648Y-4.4115
X2.4648Y-4.5414
X2.5107Y-2.9345
X2.5107Y-3.0263
X2.5107Y-4.4305
X2.5107Y-4.5224
X2.5298Y-2.9804
X2.5298Y-4.4765
X2.7227Y-3.1054
X3.8608Y-4.4804
X5.5937Y-2.9309
X6.0514Y-3.7284
X6.0704Y-3.6825
X6.0704Y-3.7744
X6.1164Y-3.6635
X6.1164Y-3.7934
X6.1623Y-3.6825
X6.1623Y-3.7744
X6.1813Y-3.7284
X6.3241Y-2.9426
X7.0544Y-2.9365
X7.7847Y-2.9379
X8.515Y-2.9251
X9.2453Y-3.0513
X9.703Y-2.9804
X9.703Y-4.4765
X9.722Y-2.9345
X9.722Y-3.0263
X9.722Y-4.4305
X9.722Y-4.5224
X9.768Y-2.9154
X9.768Y-3.0454
X9.768Y-4.4115
X9.768Y-4.5414
X9.8139Y-2.9345
X9.8139Y-3.0263
X9.8139Y-4.4305
X9.8139Y-4.5224
X9.8329Y-2.9804
X9.8329Y-4.4765
T2
X2.4628Y-3.9032
X2.4628Y-4.3032
X2.4668Y-2.3993
X2.4668Y-2.7993
X2.4668Y-3.2103
X2.4668Y-3.6103
X2.4668Y-4.6497
X2.4668Y-5.0497
X3.1951Y-2.4623
X3.1951Y-2.8623
X3.1951Y-3.2103
X3.1951Y-3.6103
X3.1951Y-3.9583
X3.1951Y-4.3583
X3.1951Y-4.5946
X3.1951Y-4.9946
X3.3463Y-4.4765
X3.366Y-2.9804
X3.5494Y-3.7284
X3.7463Y-4.4765
X3.766Y-2.9804
X3.9235Y-4.5946
X3.9235Y-4.9946
X3.9494Y-3.7284
X4.0943Y-4.4765
X4.1006Y-3.7284
X4.4943Y-4.4765
X4.5006Y-3.7284
X4.6518Y-4.5946
X4.6518Y-4.9946
X4.803Y-2.9804
X5.203Y-2.9804
X5.3802Y-2.4623
X5.3802Y-2.8623
X5.3802Y-3.2103
X5.3802Y-3.6103
X5.3802Y-3.9583
X5.3802Y-4.3583
X5.3802Y-4.5946
X5.3802Y-4.9946
X6.1085Y-2.4623
X6.1085Y-2.8623
X6.1085Y-3.9583
X6.1085Y-4.3583
X6.1124Y-3.1473
X6.1124Y-3.5473
X6.1282Y-4.5946
X6.1282Y-4.9946
X6.8369Y-2.4623
X6.8369Y-2.8623
X6.8369Y-3.2103
X6.8369Y-3.6103
X6.8369Y-3.9583
X6.8369Y-4.3583
X6.8565Y-4.5946
X6.8565Y-4.9946
X7.5652Y-2.4623
X7.5652Y-2.8623
X7.5652Y-3.9583
X7.5652Y-4.3583
X7.5849Y-3.2103
X7.5849Y-3.6103
X7.5849Y-4.5946
X7.5849Y-4.9946
X8.2935Y-2.4623
X8.2935Y-2.8623
X8.3132Y-3.2103
X8.3132Y-3.6103
X8.3132Y-3.9583
X8.3132Y-4.3583
X8.3132Y-4.5946
X8.3132Y-4.9946
X9.0219Y-3.2103
X9.0219Y-3.6103
X9.0416Y-2.4623
X9.0416Y-2.8623
X9.0416Y-3.9583
X9.0416Y-4.3583
X9.0416Y-4.5946
X9.0416Y-4.9946
X9.1991Y-2.9804
X9.5991Y-2.9804
X9.7699Y-2.3993
X9.7699Y-2.7993
X9.7699Y-3.2103
X9.7699Y-3.6103
X9.7699Y-3.8835
X9.7699Y-4.2835
X9.7699Y-4.6536
X9.7699Y-5.0536
X9.9274Y-2.9804
X9.9274Y-4.4765
X9.9408Y-3.7284
X10.3274Y-2.9804
X10.3274Y-4.4765
X10.3408Y-3.7284
T3
X3.9908Y-2.3824
X3.9908Y-2.4824
X3.9908Y-2.5824
X3.9908Y-2.6824
X3.9908Y-2.7824
X3.9908Y-2.8824
X3.9908Y-2.9824
X3.9908Y-3.0824
X3.9908Y-3.1824
X3.9908Y-3.2824
X3.9908Y-3.3824
X3.9908Y-3.4824
X4.5908Y-2.3824
X4.5908Y-2.4824
X4.5908Y-2.5824
X4.5908Y-2.6824
X4.5908Y-2.7824
X4.5908Y-2.8824
X4.5908Y-2.9824
X4.5908Y-3.0824
X4.5908Y-3.1824
X4.5908Y-3.2824
X4.5908Y-3.3824
X4.5908Y-3.4824
T4
X1.9028Y-2.756
X1.9028Y-3.504
X1.9028Y-4.252
X1.9028Y-5.0001
X2.0996Y-2.8387
X2.0996Y-3.5867
X2.0996Y-4.3347
X2.0996Y-5.0828
X2.6331Y-2.756
X2.6331Y-3.504
X2.6331Y-4.252
X2.6331Y-5.0001
X2.83Y-2.8387
X2.83Y-3.5867
X2.83Y-4.3347
X2.83Y-5.0828
X3.3634Y-2.756
X3.3634Y-3.504
X3.3634Y-4.252
X3.3634Y-5.0001
X3.5603Y-2.8387
X3.5603Y-3.5867
X3.5603Y-4.3347
X3.5603Y-5.0828
X4.0937Y-2.756
X4.0937Y-3.504
X4.0937Y-4.252
X4.0937Y-5.0001
X4.2906Y-2.8387
X4.2906Y-3.5867
X4.2906Y-4.3347
X4.2906Y-5.0828
X4.8241Y-2.756
X4.8241Y-3.504
X4.8241Y-4.252
X4.8241Y-5.0001
X5.0209Y-2.8387
X5.0209Y-3.5867
X5.0209Y-4.3347
X5.0209Y-5.0828
X5.5544Y-2.756
X5.5544Y-3.504
X5.5544Y-4.252
X5.5544Y-5.0001
X5.7512Y-2.8387
X5.7512Y-3.5867
X5.7512Y-4.3347
X5.7512Y-5.0828
X6.2847Y-2.756
X6.2847Y-3.504
X6.2847Y-4.252
X6.2847Y-5.0001
X6.4815Y-2.8387
X6.4815Y-3.5867
X6.4815Y-4.3347
X6.4815Y-5.0828
X7.015Y-2.756
X7.015Y-3.504
X7.015Y-4.252
X7.015Y-5.0001
X7.2119Y-2.8387
X7.2119Y-3.5867
X7.2119Y-4.3347
X7.2119Y-5.0828
X7.7453Y-2.756
X7.7453Y-3.504
X7.7453Y-4.252
X7.7453Y-5.0001
X7.9422Y-2.8387
X7.9422Y-3.5867
X7.9422Y-4.3347
X7.9422Y-5.0828
X8.4756Y-2.756
X8.4756Y-3.504
X8.4756Y-4.252
X8.4756Y-5.0001
X8.6725Y-2.8387
X8.6725Y-3.5867
X8.6725Y-4.3347
X8.6725Y-5.0828
X9.2059Y-2.756
X9.2059Y-3.504
X9.2059Y-4.252
X9.2059Y-5.0001
X9.4028Y-2.8387
X9.4028Y-3.5867
X9.4028Y-4.3347
X9.4028Y-5.0828
X9.9363Y-2.756
X9.9363Y-3.504
X9.9363Y-4.252
X9.9363Y-5.0001
X10.1331Y-2.8387
X10.1331Y-3.5867
X10.1331Y-4.3347
X10.1331Y-5.0828
T5
X2.4648Y-2.9804
X2.4648Y-4.4765
X6.1164Y-3.7284
X9.768Y-2.9804
X9.768Y-4.4765
T0
M30
